<svg xmlns="http://www.w3.org/2000/svg" viewBox="0 0 32 32">
  <defs>
    <linearGradient id="bg" x1="0%" y1="0%" x2="100%" y2="100%">
      <stop offset="0%" stop-color="#2A2D31"/>
      <stop offset="100%" stop-color="#1C1E21"/>
    </linearGradient>
  </defs>

  <!-- 배경 (둥근 정사각형) -->
  <rect width="32" height="32" rx="7" fill="url(#bg)"/>

  <!-- 전화기 아이콘 (흰색) -->
  <path d="M22.8 19.8L20.3 17.4C19.8 16.9 19 16.9 18.5 17.4L17.2 18.7C16.5 18.3 15.2 17.4 13.9 16.1C12.6 14.8 11.7 13.5 11.3 12.8L12.6 11.5C13.1 11 13.1 10.2 12.6 9.7L10.2 7.2C9.7 6.7 8.9 6.7 8.4 7.2L7.3 8.3C6.3 9.3 6 10.7 6.5 12.2C7.4 14.9 9.7 18.1 12.6 21C15.5 23.9 18.7 26.2 21.4 27.1C22 27.3 22.5 27.4 23 27.4C23.9 27.4 24.7 27.1 25.3 26.5L26.4 25.4C26.9 24.9 26.9 24.1 26.4 23.6L23.8 21.2L22.8 19.8Z"
        fill="#47A5FA" transform="scale(0.82) translate(2, 1)"/>
</svg>
